<?xml version="1.0" encoding="UTF-8"?>
<!-- Generated by Pixelmator Pro 3.3 -->
<svg width="256" height="100" viewBox="0 0 256 100" xmlns="http://www.w3.org/2000/svg" xmlns:xlink="http://www.w3.org/1999/xlink">
    <g id="Darwinia-Color">
        <g id="DARWINIA-">
            <path id="path1" fill="#db378a" fill-rule="evenodd" stroke="none" d="M 70.91539 5 C 76.854675 5 81.669724 9.798798 81.669724 15.718613 C 81.669724 20.353424 78.71756 24.301559 74.585297 25.796814 L 74.585869 81.321655 C 82.278748 80.983162 89.432281 79.580223 95.788025 77.254883 L 95.787796 34.686646 C 91.655533 33.191391 88.703369 29.243256 88.703369 24.608444 C 88.703369 18.688629 93.518417 13.889847 99.457695 13.889847 C 105.396973 13.889847 110.212029 18.688629 110.212029 24.608444 C 110.212029 29.243256 107.259857 33.191391 103.127594 34.686646 L 103.127937 73.970375 C 110.194435 70.162819 115.855667 65.009506 119.609779 58.786224 C 117.06263 56.498383 115.461777 53.185455 115.461777 49.5 C 115.461777 42.598038 121.075294 37.003418 128 37.003418 C 128.568634 37.003418 129.128418 37.041153 129.677002 37.114227 C 139.226654 20.564926 159.703186 10.541397 184.134293 10.288025 L 185.08461 10.283112 L 224.330276 10.283112 C 226.35701 10.283112 228 11.920639 228 13.940643 C 228 15.888489 226.472275 17.480713 224.545898 17.591965 L 224.330276 17.598175 L 217.296631 17.598175 L 217.296906 73.203133 C 221.429214 74.69828 224.381241 78.646194 224.381241 83.281395 C 224.381241 89.200722 219.565964 94 213.626907 94 C 207.687851 94 202.872574 89.200722 202.872574 83.281395 C 202.872574 78.645737 205.825195 74.697495 209.958145 73.20269 L 209.957184 17.598175 L 188.75351 17.598175 L 188.754593 73.203133 C 192.886902 74.69828 195.838943 78.646194 195.838943 83.281395 C 195.838943 89.200722 191.023666 94 185.08461 94 C 179.145554 94 174.330276 89.200722 174.330276 83.281395 C 174.330276 78.646194 177.282303 74.69828 181.414612 73.203133 L 181.414139 17.678345 C 173.721252 18.016846 166.567719 19.419769 160.211975 21.745117 L 160.212296 64.313293 C 164.344604 65.808441 167.296631 69.756355 167.296631 74.391556 C 167.296631 80.310875 162.481354 85.110161 156.542297 85.110161 C 150.603241 85.110161 145.787964 80.310875 145.787964 74.391556 C 145.787964 69.756355 148.740005 65.808441 152.872314 64.313293 L 152.87207 25.029633 C 145.805573 28.837173 140.144333 33.990494 136.390228 40.213776 C 138.937439 42.501373 140.538223 45.814285 140.538223 49.5 C 140.538223 56.401474 134.924469 61.996574 128 61.996574 C 127.431381 61.996574 126.871605 61.958847 126.323051 61.885765 C 116.773468 78.435013 96.29689 88.458595 71.865715 88.711975 L 70.91539 88.716896 L 31.669725 88.716896 C 29.642992 88.716896 28 87.079361 28 85.059364 C 28 83.111504 29.527731 81.519279 31.454102 81.408035 L 31.669725 81.401825 L 38.703365 81.401421 L 38.703377 25.796875 C 34.571014 24.301666 31.618755 20.353485 31.618755 15.718613 C 31.618755 9.798798 36.433811 5 42.373089 5 C 48.312366 5 53.127419 9.798798 53.127419 15.718613 C 53.127419 20.353027 50.175743 24.300888 46.044029 25.796432 L 46.042816 81.401421 L 67.245255 81.401421 L 67.245491 25.796814 C 63.113232 24.301559 60.16106 20.353424 60.16106 15.718613 C 60.16106 9.798798 64.976112 5 70.91539 5 Z"/>
        </g>
    </g>
</svg>
